<!-- icon666.com - MILLIONS vector ICONS FREE --><svg id="Layer_1" viewBox="0 0 32 32" xmlns="http://www.w3.org/2000/svg" data-name="Layer 1"><circle cx="16" cy="16" r="4" fill="#000000" style="fill: rgb(255, 255, 255);"></circle><path d="m30.134 19.557-3.273-1.891a11.024 11.024 0 0 0 .139-1.666 10.958 10.958 0 0 0 -.139-1.661l3.259-1.89a1 1 0 0 0 .365-1.363l-3-5.216a1 1 0 0 0 -1.367-.37l-3.27 1.9a11 11 0 0 0 -2.848-1.639v-3.761a1 1 0 0 0 -1-1h-6a1 1 0 0 0 -1 1v3.761a10.964 10.964 0 0 0 -2.87 1.656l-3.264-1.89a1 1 0 0 0 -1.366.366l-3 5.21a1 1 0 0 0 .366 1.365l3.271 1.893a11.071 11.071 0 0 0 -.137 1.639 10.982 10.982 0 0 0 .139 1.662l-3.275 1.895a1 1 0 0 0 -.364 1.365l3 5.21a1 1 0 0 0 1.367.366l3.283-1.9a11 11 0 0 0 2.85 1.641v3.761a1 1 0 0 0 1 1h6a1 1 0 0 0 1-1v-3.761a10.985 10.985 0 0 0 2.844-1.639l3.283 1.9a1 1 0 0 0 1.367-.367l3.006-5.21a1 1 0 0 0 -.366-1.366zm-14.134 2.443a6 6 0 1 1 6-6 6.006 6.006 0 0 1 -6 6z" fill="#000000" style="fill: rgb(255, 255, 255);"></path></svg>